<svg xmlns="http://www.w3.org/2000/svg" width="34" height="23" fill="none"><path fill="url(#a)" fill-rule="evenodd" d="m9.63.144 1.477.894c.26.158.32.51.128.747C9.08 4.44 7.122 7.316 7.122 10.883c2.941 0 5.973 2.423 5.973 5.525 0 4.334-3.484 7.033-6.969 6.531-3.484-.502-5.545-3.014-5.972-6.028C-.826 9.999 2.986 3.774 8.599.15A.97.97 0 0 1 9.631.145m20.906 0 1.476.894c.26.158.32.51.128.747-2.155 2.654-4.113 5.531-4.113 9.098 2.942 0 5.973 2.423 5.973 5.525 0 4.334-3.484 7.033-6.968 6.531s-5.546-3.014-5.973-6.028C20.079 9.999 23.89 3.774 29.505.15a.97.97 0 0 1 1.031-.007" clip-rule="evenodd"/><defs><linearGradient id="a" x1="1.927" x2="19.702" y1="0" y2="29.018" gradientUnits="userSpaceOnUse"><stop offset=".259" stop-color="#FFDB6E"/><stop offset="1" stop-color="#FFBC5E"/></linearGradient></defs></svg>