<svg xmlns="http://www.w3.org/2000/svg" width="42" height="32" fill="none"><path fill="url(#a)" fill-rule="evenodd" d="M1.5 6.898a2 2 0 0 1 2-2h34.8a2 2 0 0 1 2 2v20.99a2 2 0 0 1-2 2H24.21c4.23-1.357 7.29-5.32 7.29-9.996 0-5.797-4.701-10.496-10.5-10.496s-10.5 4.7-10.5 10.496c0 4.677 3.06 8.64 7.29 9.995H3.5a2 2 0 0 1-2-2zM21 24.89a4.999 4.999 0 1 0 0-9.995 4.999 4.999 0 1 0 0 9.995" clip-rule="evenodd" opacity=".15"/><path fill="url(#b)" stroke="url(#c)" stroke-width=".25" d="M2.047 21.566a.461.461 0 0 1-.922 0v-2.37a.46.46 0 0 1 .922 0z"/><path fill="url(#d)" stroke="url(#e)" stroke-width=".25" d="M38.745 4.724h-2.427v-.277c0-.782-.637-1.42-1.42-1.42h-.25V2.32c0-.783-.637-1.42-1.42-1.42h-2.8c-.783 0-1.42.637-1.42 1.42v.707h-.249c-.783 0-1.42.637-1.42 1.42v.277h-8.34v-.61c0-.783-.638-1.42-1.421-1.42h-1.13c-.783 0-1.42.637-1.42 1.42v.61h-1.371V3.279c0-.782-.638-1.42-1.421-1.42H6.098c-.783 0-1.42.638-1.42 1.42v1.445H3.255A2.257 2.257 0 0 0 1 6.978v9.668a.586.586 0 0 0 1.172 0v-5.562h3.207a2.23 2.23 0 0 0 2.148 1.64 2.23 2.23 0 0 0 2.147-1.64h4.654a11.11 11.11 0 0 0-4.455 8.894c0 2.385.755 4.596 2.039 6.41h-9.74v-2.272a.586.586 0 0 0-1.172 0v3.664a2.257 2.257 0 0 0 2.255 2.254H16.25A11.1 11.1 0 0 0 21 31.1c1.7 0 3.31-.383 4.752-1.067h12.993A2.257 2.257 0 0 0 41 27.78V6.978a2.257 2.257 0 0 0-2.255-2.254ZM30.18 2.32a.25.25 0 0 1 .249-.249h2.799c.137 0 .249.112.249.249v.707H30.18V2.32Zm-1.67 2.127a.25.25 0 0 1 .25-.248h6.137a.25.25 0 0 1 .249.248v.277H28.51v-.277ZM16.2 4.114a.25.25 0 0 1 .248-.249h1.13c.137 0 .248.112.248.249v.61H16.2zM5.85 3.279a.25.25 0 0 1 .248-.248h6.138a.25.25 0 0 1 .249.248v1.445H5.85zm1.677 8.273a1.056 1.056 0 0 1-1.055-1.054 1.056 1.056 0 0 1 2.11 0c0 .582-.474 1.054-1.056 1.054Zm2.147-1.64a2.23 2.23 0 0 0-2.147-1.64 2.23 2.23 0 0 0-2.148 1.64H2.172V6.978c0-.597.486-1.083 1.083-1.083h35.49c.597 0 1.083.486 1.083 1.083v2.934h-1.744V7.784a.586.586 0 0 0-.586-.585h-5.453a.586.586 0 0 0-.586.585v2.128h-5.732a11.13 11.13 0 0 0-9.456 0zm22.957 0V8.37h4.282v1.542zM3.255 28.862a1.085 1.085 0 0 1-1.083-1.082v-.221h10.695q.666.715 1.447 1.303zm7.79-8.883c0-5.487 4.466-9.95 9.955-9.95a9.97 9.97 0 0 1 7.454 3.355.586.586 0 1 0 .877-.777 11 11 0 0 0-1.655-1.523h12.152v15.303h-9.74a11.1 11.1 0 0 0 1.837-4.297h1.533a1.57 1.57 0 0 0 1.567-1.567v-1.46c0-.863-.703-1.566-1.567-1.566h-1.613a11 11 0 0 0-.988-2.681.585.585 0 0 0-1.038.544 10 10 0 0 1 1.136 4.619c0 5.486-4.466 9.95-9.955 9.95s-9.955-4.464-9.955-9.95Zm21.003-1.311h1.41c.218 0 .395.177.395.395v1.46a.396.396 0 0 1-.395.395h-1.371a11 11 0 0 0-.039-2.25Zm6.697 10.195H27.686a11 11 0 0 0 1.448-1.304h10.694v.22c0 .598-.486 1.084-1.083 1.084Z"/><path fill="url(#f)" stroke="url(#g)" stroke-width=".25" d="M13.242 19.979c0-4.277 3.48-7.756 7.758-7.756s7.759 3.48 7.759 7.756-3.48 7.755-7.759 7.755c-4.278 0-7.758-3.48-7.758-7.756Zm.921 0c0 3.768 3.067 6.833 6.837 6.833s6.837-3.065 6.837-6.834S24.77 13.145 21 13.145s-6.837 3.066-6.837 6.835Z"/><path fill="url(#h)" stroke="url(#i)" stroke-width=".25" d="M15.619 19.979a5.386 5.386 0 0 1 5.38-5.38 5.386 5.386 0 0 1 5.382 5.38A5.386 5.386 0 0 1 21 25.357a5.386 5.386 0 0 1-5.381-5.378Zm.922 0c0 2.457 2 4.457 4.459 4.457s4.46-2 4.46-4.457c0-2.459-2.001-4.458-4.46-4.458s-4.46 2-4.46 4.458Z"/><defs><linearGradient id="a" x1="3.699" x2="22.569" y1="4.898" y2="37.252" gradientUnits="userSpaceOnUse"><stop offset=".259" stop-color="#FFDB6E"/><stop offset="1" stop-color="#FFBC5E"/></linearGradient><linearGradient id="b" x1="1.177" x2="2.789" y1="18.736" y2="19.235" gradientUnits="userSpaceOnUse"><stop offset=".259" stop-color="#FFDB6E"/><stop offset="1" stop-color="#FFBC5E"/></linearGradient><linearGradient id="c" x1="1.177" x2="2.789" y1="18.736" y2="19.235" gradientUnits="userSpaceOnUse"><stop offset=".259" stop-color="#FFDB6E"/><stop offset="1" stop-color="#FFBC5E"/></linearGradient><linearGradient id="d" x1="3.267" x2="27.682" y1=".9" y2="36.609" gradientUnits="userSpaceOnUse"><stop offset=".259" stop-color="#FFDB6E"/><stop offset="1" stop-color="#FFBC5E"/></linearGradient><linearGradient id="e" x1="3.267" x2="27.682" y1=".9" y2="36.609" gradientUnits="userSpaceOnUse"><stop offset=".259" stop-color="#FFDB6E"/><stop offset="1" stop-color="#FFBC5E"/></linearGradient><linearGradient id="f" x1="14.121" x2="27.511" y1="12.223" y2="27.015" gradientUnits="userSpaceOnUse"><stop offset=".259" stop-color="#FFDB6E"/><stop offset="1" stop-color="#FFBC5E"/></linearGradient><linearGradient id="g" x1="14.121" x2="27.511" y1="12.223" y2="27.015" gradientUnits="userSpaceOnUse"><stop offset=".259" stop-color="#FFDB6E"/><stop offset="1" stop-color="#FFBC5E"/></linearGradient><linearGradient id="h" x1="16.229" x2="25.516" y1="14.6" y2="24.859" gradientUnits="userSpaceOnUse"><stop offset=".259" stop-color="#FFDB6E"/><stop offset="1" stop-color="#FFBC5E"/></linearGradient><linearGradient id="i" x1="16.229" x2="25.516" y1="14.6" y2="24.859" gradientUnits="userSpaceOnUse"><stop offset=".259" stop-color="#FFDB6E"/><stop offset="1" stop-color="#FFBC5E"/></linearGradient></defs></svg>