<svg xmlns="http://www.w3.org/2000/svg" width="40" height="40" fill="none" viewBox="0 0 22 40"><path fill="url(#a)" fill-rule="evenodd" d="M3 1a2 2 0 0 0-2 2v34a2 2 0 0 0 2 2h15.9a2 2 0 0 0 2-2V3a2 2 0 0 0-2-2h-3.237v1H6.237V1z" clip-rule="evenodd" opacity=".15"/><path fill="url(#b)" d="M8.509 35.675a.676.676 0 1 0 0 1.352zm4.954 1.352a.676.676 0 0 0 0-1.352zM.4 29.414a.676.676 0 0 0 1.353 0zm1.353 2.973a.676.676 0 1 0-1.353 0zM20.219 7.613a.676.676 0 1 0 1.353 0zm1.353 2.973a.676.676 0 0 0-1.353 0zM18.48 38.647H3.492V40H18.48zM3.492 1.353h3.035V0H3.492zm2.358.34h1.353V.675H5.85zm1.643 1.642h6.986V1.982H7.493zm-.966-1.982h8.918V0H6.527zm8.918 0h3.035V0h-3.035zm.677.34V.675h-1.353v1.016zM8.509 37.026h4.954v-1.352H8.51zm-6.756-7.613V3.092H.4v26.322zm0 7.494v-4.521H.4v4.521zM20.219 3.092v4.521h1.353V3.092zm0 7.494v26.322h1.353V10.586zm-5.74-7.251c.907 0 1.643-.736 1.643-1.643h-1.353c0 .16-.13.29-.29.29zM3.492 38.647a1.74 1.74 0 0 1-1.74-1.739H.4A3.09 3.09 0 0 0 3.492 40zM18.48 40a3.09 3.09 0 0 0 3.092-3.092h-1.353c0 .96-.779 1.74-1.739 1.74zm0-38.647c.96 0 1.74.778 1.74 1.739h1.352A3.09 3.09 0 0 0 18.48 0zm-12.63.34c0 .906.736 1.642 1.643 1.642V1.982a.29.29 0 0 1-.29-.29zM3.492 0A3.09 3.09 0 0 0 .4 3.092h1.353c0-.96.778-1.74 1.739-1.74z"/><defs><linearGradient id="a" x1="2.128" x2="30.702" y1="1" y2="17.524" gradientUnits="userSpaceOnUse"><stop offset=".259" stop-color="#FFDB6E"/><stop offset="1" stop-color="#FFBC5E"/></linearGradient><linearGradient id="b" x1="1.6" x2="31.837" y1="0" y2="17.673" gradientUnits="userSpaceOnUse"><stop offset=".259" stop-color="#FFDB6E"/><stop offset="1" stop-color="#FFBC5E"/></linearGradient></defs></svg>