<svg xmlns="http://www.w3.org/2000/svg" width="42" height="42" fill="none"><path fill="url(#a)" fill-rule="evenodd" d="M40.638 19.814a.59.59 0 0 0-.64.128l-1.759 1.764V9.712a.59.59 0 0 0-.587-.59h-4.51l1.637-1.642 1.578-1.584c.338-.339.525-.79.525-1.27s-.187-.93-.525-1.27l-1.824-1.83A1.78 1.78 0 0 0 33.267 1c-.478 0-.928.187-1.266.526L30.423 3.11l-1.908 1.913-4.086 4.1H6.205V3.296a.59.59 0 0 0-.587-.59C3.07 2.707 1 4.786 1 7.34v25.017q0 .065.014.127a4.44 4.44 0 0 0 1.33 2.855 4.41 4.41 0 0 0 3.103 1.267h17.94l-3.378 3.39A.59.59 0 0 0 20.424 41h19.989a.59.59 0 0 0 .587-.589V20.358a.59.59 0 0 0-.362-.544M32.832 2.359c.24-.241.63-.241.87 0l1.825 1.83a.62.62 0 0 1 0 .874l-1.163 1.168-2.696-2.705zm-1.994 2 2.695 2.704-1.077 1.081-2.695-2.704zM18.397 21.76l-1.682.596-1.12-1.125.593-1.687zm17.432 8.41-5.658 5.66a.1.1 0 0 0 .07.17H36v-5.759a.1.1 0 0 0-.17-.07M16 18.5l3.5 3.5 13-13L29 5.5z" clip-rule="evenodd" opacity=".15"/><path fill="url(#b)" stroke="url(#c)" stroke-width=".25" d="M36.4 29.255a.59.59 0 0 0-.64.128l-6.416 6.436a.59.59 0 0 0 .415 1.006h6.416a.59.59 0 0 0 .587-.59V29.8a.59.59 0 0 0-.362-.544Zm-5.224 6.392 4.412-4.426v4.426z"/><path fill="url(#d)" stroke="url(#e)" stroke-width=".25" d="M40.638 19.814a.59.59 0 0 0-.64.128l-1.759 1.764V9.712a.59.59 0 0 0-.587-.59h-4.51l1.637-1.642 1.578-1.584c.338-.339.525-.79.525-1.27s-.187-.93-.525-1.27l-1.824-1.83A1.78 1.78 0 0 0 33.267 1c-.478 0-.928.187-1.266.526L30.423 3.11l-1.908 1.913-4.086 4.1H6.205V3.296a.59.59 0 0 0-.587-.59C3.07 2.707 1 4.786 1 7.34v25.017q0 .065.014.127a4.44 4.44 0 0 0 1.33 2.855 4.41 4.41 0 0 0 3.103 1.267h17.94l-3.378 3.39A.59.59 0 0 0 20.424 41h19.989a.59.59 0 0 0 .587-.589V20.358a.59.59 0 0 0-.362-.544ZM32.832 2.359c.24-.241.63-.241.87 0l1.825 1.83a.62.62 0 0 1 0 .874l-1.163 1.168-2.696-2.705zm-1.994 2 2.695 2.704-1.077 1.081-2.695-2.704zm8.988 22.617h-1.083a.588.588 0 0 0 0 1.178h1.083v1.775h-1.083a.588.588 0 0 0 0 1.178h1.083v1.775h-1.083a.588.588 0 0 0 0 1.178h1.083v1.775h-1.083a.588.588 0 0 0 0 1.178h1.083v2.81H21.842l5.93-5.95a.59.59 0 0 0-.084-.903.586.586 0 0 0-.746.07l-2.38 2.387H5.448a3.26 3.26 0 0 1-3.271-3.178 3.5 3.5 0 0 1 .05-.49l.003-.018a3.4 3.4 0 0 1 .14-.53l.02-.06.046-.115.013-.033q.03-.07.063-.14l.003-.005a3.46 3.46 0 0 1 2.558-1.913l.025-.004.135-.018.038-.004q.065-.007.131-.01l.042-.003a4 4 0 0 1 .174-.005.59.59 0 0 0 .587-.589v-4.27a.588.588 0 1 0-1.175 0v3.718a4.58 4.58 0 0 0-2.856 1.512V7.34A3.46 3.46 0 0 1 5.03 3.935v17.75a.588.588 0 1 0 1.175 0V10.302h17.05l-3.246 3.256a.59.59 0 0 0 0 .833c.23.23.601.23.83 0l4.248-4.262 3.843-3.855 2.696 2.704-.317.317v.001L19.47 21.172l-2.696-2.705 2.333-2.34a.59.59 0 0 0 0-.834.586.586 0 0 0-.83 0l-2.749 2.758-.04.046-.013.017-.024.033-.012.021a1 1 0 0 0-.044.091l-.005.012-1.144 3.251-.78 2.216a1 1 0 0 0-.023.09h-1.952a.588.588 0 0 0 0 1.178H27.75a.588.588 0 0 0 0-1.178H16.086l3.58-1.268.01-.004.04-.017.017-.007.041-.023.013-.008.042-.03.01-.007.047-.043 12.082-12.12h5.098v12.583l-8.398 8.425a.59.59 0 0 0 .415 1.006.58.58 0 0 0 .415-.173L39.827 21.78zm-21.43-5.216-1.681.596-1.12-1.125.593-1.687z"/><defs><linearGradient id="a" x1="3.267" x2="37.8" y1="1" y2="39.133" gradientUnits="userSpaceOnUse"><stop offset=".259" stop-color="#FFDB6E"/><stop offset="1" stop-color="#FFBC5E"/></linearGradient><linearGradient id="b" x1="29.602" x2="36.178" y1="29.21" y2="36.448" gradientUnits="userSpaceOnUse"><stop offset=".259" stop-color="#FFDB6E"/><stop offset="1" stop-color="#FFBC5E"/></linearGradient><linearGradient id="c" x1="29.602" x2="36.178" y1="29.21" y2="36.448" gradientUnits="userSpaceOnUse"><stop offset=".259" stop-color="#FFDB6E"/><stop offset="1" stop-color="#FFBC5E"/></linearGradient><linearGradient id="d" x1="3.267" x2="37.8" y1="1" y2="39.133" gradientUnits="userSpaceOnUse"><stop offset=".259" stop-color="#FFDB6E"/><stop offset="1" stop-color="#FFBC5E"/></linearGradient><linearGradient id="e" x1="3.267" x2="37.8" y1="1" y2="39.133" gradientUnits="userSpaceOnUse"><stop offset=".259" stop-color="#FFDB6E"/><stop offset="1" stop-color="#FFBC5E"/></linearGradient></defs></svg>